<svg width="74" height="56" viewBox="0 0 74 56" fill="none" xmlns="http://www.w3.org/2000/svg">
<path fill-rule="evenodd" clip-rule="evenodd" d="M2 45.75V19.5C2 14.6675 5.91751 10.75 10.75 10.75H19.5L28.5939 2H45.7447L54.1422 10.75H63.25C68.0825 10.75 72 14.6675 72 19.5V45.75C72 50.5825 68.0825 54.5 63.25 54.5H10.75C5.91751 54.5 2 50.5825 2 45.75Z" stroke="#FCE1B9" stroke-width="3" stroke-linecap="round" stroke-linejoin="round"/>
<path fill-rule="evenodd" clip-rule="evenodd" d="M50.125 32.625C50.125 25.3763 44.2487 19.5 37 19.5C29.7513 19.5 23.875 25.3763 23.875 32.625C23.875 39.8737 29.7513 45.75 37 45.75C44.2487 45.75 50.125 39.8737 50.125 32.625Z" stroke="#FCE1B9" stroke-width="3" stroke-linecap="round" stroke-linejoin="round"/>
</svg>
