<svg width="80" height="89" viewBox="0 0 80 89" fill="none" xmlns="http://www.w3.org/2000/svg">
<rect x="34.6659" width="2.66822" height="16.0093" rx="1.33411" fill="black"/>
<rect x="3.98132" y="33.3528" width="2.66822" height="16.0093" rx="1.33411" transform="rotate(-90 3.98132 33.3528)" fill="black"/>
<rect x="21.146" y="60.4148" width="2.66822" height="16.0093" rx="1.33411" transform="rotate(-150 21.146 60.4148)" fill="black"/>
<rect x="53.1647" y="59.0807" width="2.66822" height="16.0093" rx="1.33411" transform="rotate(150 53.1647 59.0807)" fill="black"/>
<rect x="64.3961" y="46.8728" width="2.66822" height="16.0093" rx="1.33411" transform="rotate(120 64.3961 46.8728)" fill="black"/>
<rect x="63.062" y="14.854" width="2.66822" height="16.0093" rx="1.33411" transform="rotate(60 63.062 14.854)" fill="black"/>
<rect x="37.3341" y="64.0374" width="2.66822" height="16.0093" rx="1.33411" transform="rotate(180 37.3341 64.0374)" fill="black"/>
<rect x="68.0187" y="30.6846" width="2.66822" height="16.0093" rx="1.33411" transform="rotate(90 68.0187 30.6846)" fill="black"/>
<rect x="50.8541" y="3.62256" width="2.66822" height="16.0093" rx="1.33411" transform="rotate(30 50.8541 3.62256)" fill="black"/>
<rect x="18.8354" y="4.95667" width="2.66822" height="16.0093" rx="1.33411" transform="rotate(-30 18.8354 4.95667)" fill="black"/>
<rect x="7.60388" y="17.1647" width="2.66822" height="16.0093" rx="1.33411" transform="rotate(-60 7.60388 17.1647)" fill="black"/>
<rect x="8.93799" y="49.1833" width="2.66822" height="16.0093" rx="1.33411" transform="rotate(-120 8.93799 49.1833)" fill="black"/>
<mask id="path-13-outside-1_63_109" maskUnits="userSpaceOnUse" x="0" y="68.3785" width="80" height="22" fill="black">
<rect fill="white" y="68.3785" width="80" height="22"/>
<path d="M1.51811 84.3785V70.5604H3.60298V82.5838H9.86435V84.3785H1.51811ZM17.5862 84.5877C16.6146 84.5877 15.7667 84.365 15.0425 83.9197C14.3183 83.4744 13.7561 82.8514 13.3557 82.0508C12.9554 81.2501 12.7552 80.3145 12.7552 79.244C12.7552 78.1689 12.9554 77.2288 13.3557 76.4236C13.7561 75.6185 14.3183 74.9932 15.0425 74.5479C15.7667 74.1026 16.6146 73.88 17.5862 73.88C18.5578 73.88 19.4057 74.1026 20.1299 74.5479C20.8541 74.9932 21.4163 75.6185 21.8167 76.4236C22.217 77.2288 22.4172 78.1689 22.4172 79.244C22.4172 80.3145 22.217 81.2501 21.8167 82.0508C21.4163 82.8514 20.8541 83.4744 20.1299 83.9197C19.4057 84.365 18.5578 84.5877 17.5862 84.5877ZM17.5929 82.8942C18.2227 82.8942 18.7445 82.7277 19.1583 82.3949C19.5721 82.062 19.878 81.619 20.0759 81.0657C20.2783 80.5124 20.3795 79.9029 20.3795 79.2372C20.3795 78.576 20.2783 77.9687 20.0759 77.4155C19.878 76.8577 19.5721 76.4101 19.1583 76.0728C18.7445 75.7354 18.2227 75.5667 17.5929 75.5667C16.9587 75.5667 16.4324 75.7354 16.0141 76.0728C15.6003 76.4101 15.2922 76.8577 15.0898 77.4155C14.8918 77.9687 14.7929 78.576 14.7929 79.2372C14.7929 79.9029 14.8918 80.5124 15.0898 81.0657C15.2922 81.619 15.6003 82.062 16.0141 82.3949C16.4324 82.7277 16.9587 82.8942 17.5929 82.8942ZM28.825 84.6079C28.1683 84.6079 27.5745 84.4865 27.0438 84.2436C26.513 83.9962 26.0924 83.6386 25.782 83.1708C25.4762 82.703 25.3232 82.1295 25.3232 81.4503C25.3232 80.8655 25.4357 80.3842 25.6606 80.0064C25.8855 79.6285 26.1891 79.3294 26.5715 79.109C26.9538 78.8886 27.3811 78.7222 27.8534 78.6097C28.3257 78.4973 28.807 78.4118 29.2973 78.3533C29.9181 78.2814 30.4218 78.2229 30.8087 78.1779C31.1955 78.1284 31.4766 78.0497 31.6521 77.9418C31.8275 77.8338 31.9152 77.6584 31.9152 77.4155V77.3682C31.9152 76.779 31.7488 76.3224 31.4159 75.9986C31.0876 75.6747 30.5973 75.5128 29.945 75.5128C29.2658 75.5128 28.7306 75.6635 28.3392 75.9648C27.9524 76.2617 27.6847 76.5923 27.5363 76.9567L25.6404 76.5248C25.8653 75.8951 26.1936 75.3868 26.6254 75C27.0618 74.6087 27.5633 74.3253 28.1301 74.1498C28.6968 73.9699 29.2928 73.88 29.9181 73.88C30.3319 73.88 30.7704 73.9294 31.2337 74.0284C31.7016 74.1229 32.1379 74.2983 32.5427 74.5547C32.952 74.8111 33.2871 75.1777 33.548 75.6545C33.8089 76.1268 33.9394 76.7408 33.9394 77.4964V84.3785H31.9692V82.9616H31.8882C31.7578 83.2225 31.5621 83.4789 31.3012 83.7308C31.0403 83.9827 30.7052 84.1919 30.2959 84.3583C29.8866 84.5247 29.3963 84.6079 28.825 84.6079ZM29.2636 82.9886C29.8213 82.9886 30.2981 82.8784 30.694 82.658C31.0943 82.4376 31.3979 82.1497 31.6048 81.7944C31.8163 81.4345 31.922 81.0499 31.922 80.6406V79.3047C31.85 79.3766 31.7105 79.4441 31.5036 79.5071C31.3012 79.5656 31.0696 79.6173 30.8087 79.6623C30.5478 79.7028 30.2936 79.741 30.0462 79.777C29.7989 79.8085 29.5919 79.8355 29.4255 79.8579C29.0342 79.9074 28.6766 79.9906 28.3527 80.1076C28.0333 80.2245 27.777 80.3932 27.5835 80.6136C27.3946 80.8295 27.3002 81.1174 27.3002 81.4773C27.3002 81.9766 27.4846 82.3544 27.8534 82.6108C28.2223 82.8627 28.6923 82.9886 29.2636 82.9886ZM41.646 84.581C40.8094 84.581 40.0627 84.3673 39.406 83.94C38.7537 83.5082 38.241 82.8942 37.8676 82.098C37.4988 81.2973 37.3144 80.337 37.3144 79.217C37.3144 78.0969 37.501 77.1388 37.8744 76.3427C38.2522 75.5465 38.7695 74.937 39.4262 74.5142C40.0829 74.0914 40.8274 73.88 41.6595 73.88C42.3028 73.88 42.82 73.9879 43.2114 74.2038C43.6072 74.4152 43.9131 74.6626 44.129 74.946C44.3494 75.2294 44.5203 75.479 44.6418 75.6949H44.7632V70.5604H46.7806V84.3785H44.8104V82.766H44.6418C44.5203 82.9864 44.3449 83.2383 44.1155 83.5217C43.8906 83.805 43.5802 84.0524 43.1844 84.2638C42.7885 84.4752 42.2758 84.581 41.646 84.581ZM42.0913 82.8604C42.6716 82.8604 43.1619 82.7075 43.5622 82.4016C43.9671 82.0913 44.2729 81.6617 44.4798 81.1129C44.6912 80.5641 44.797 79.9254 44.797 79.1967C44.797 78.477 44.6935 77.8473 44.4866 77.3075C44.2797 76.7677 43.976 76.3472 43.5757 76.0458C43.1754 75.7444 42.6806 75.5937 42.0913 75.5937C41.4841 75.5937 40.9781 75.7512 40.5732 76.066C40.1684 76.3809 39.8625 76.8105 39.6556 77.3547C39.4532 77.899 39.352 78.513 39.352 79.1967C39.352 79.8894 39.4555 80.5124 39.6624 81.0657C39.8693 81.619 40.1751 82.0575 40.58 82.3814C40.9893 82.7007 41.4931 82.8604 42.0913 82.8604ZM50.8 84.3785V74.0149H52.8174V84.3785H50.8ZM51.8188 72.4158C51.4679 72.4158 51.1666 72.2989 50.9147 72.065C50.6673 71.8266 50.5436 71.5432 50.5436 71.2148C50.5436 70.882 50.6673 70.5986 50.9147 70.3647C51.1666 70.1263 51.4679 70.0071 51.8188 70.0071C52.1696 70.0071 52.4688 70.1263 52.7162 70.3647C52.9681 70.5986 53.094 70.882 53.094 71.2148C53.094 71.5432 52.9681 71.8266 52.7162 72.065C52.4688 72.2989 52.1696 72.4158 51.8188 72.4158ZM58.6888 78.2251V84.3785H56.6714V74.0149H58.6078V75.7017H58.736C58.9744 75.1529 59.3478 74.7121 59.8561 74.3792C60.3689 74.0464 61.0143 73.88 61.7925 73.88C62.4987 73.88 63.1172 74.0284 63.648 74.3253C64.1788 74.6176 64.5903 75.054 64.8827 75.6342C65.1751 76.2145 65.3213 76.9319 65.3213 77.7866V84.3785H63.3039V78.0295C63.3039 77.2783 63.1082 76.6913 62.7169 76.2685C62.3255 75.8411 61.788 75.6275 61.1043 75.6275C60.6365 75.6275 60.2204 75.7287 59.8561 75.9311C59.4962 76.1335 59.2106 76.4304 58.9992 76.8217C58.7923 77.2086 58.6888 77.6764 58.6888 78.2251ZM73.512 88.4808C72.6889 88.4808 71.9804 88.3729 71.3867 88.1569C70.7974 87.941 70.3161 87.6554 69.9428 87.3001C69.5695 86.9447 69.2906 86.5556 69.1062 86.1328L70.8402 85.4176C70.9616 85.6155 71.1236 85.8247 71.326 86.0451C71.5329 86.27 71.8118 86.4612 72.1626 86.6186C72.518 86.776 72.9745 86.8547 73.5323 86.8547C74.297 86.8547 74.929 86.6681 75.4282 86.2947C75.9275 85.9259 76.1772 85.3366 76.1772 84.527V82.4893H76.049C75.9275 82.7097 75.7521 82.9549 75.5227 83.2248C75.2978 83.4947 74.9874 83.7286 74.5916 83.9265C74.1958 84.1244 73.6807 84.2234 73.0465 84.2234C72.2278 84.2234 71.4902 84.0322 70.8334 83.6498C70.1812 83.263 69.6639 82.694 69.2816 81.9428C68.9037 81.1871 68.7148 80.2583 68.7148 79.1562C68.7148 78.0542 68.9015 77.1096 69.2748 76.3224C69.6527 75.5353 70.17 74.9325 70.8267 74.5142C71.4834 74.0914 72.2278 73.88 73.06 73.88C73.7032 73.88 74.2227 73.9879 74.6186 74.2038C75.0144 74.4152 75.3225 74.6626 75.5429 74.946C75.7678 75.2294 75.941 75.479 76.0625 75.6949H76.2109V74.0149H78.1878V84.6079C78.1878 85.4986 77.9809 86.2295 77.5671 86.8008C77.1533 87.372 76.5933 87.7949 75.887 88.0692C75.1853 88.3436 74.3937 88.4808 73.512 88.4808ZM73.4918 82.5501C74.0721 82.5501 74.5624 82.4151 74.9627 82.1452C75.3675 81.8708 75.6734 81.4795 75.8803 80.9712C76.0917 80.4584 76.1974 79.8444 76.1974 79.1293C76.1974 78.432 76.094 77.8181 75.887 77.2873C75.6801 76.7565 75.3765 76.3427 74.9762 76.0458C74.5759 75.7444 74.0811 75.5937 73.4918 75.5937C72.8846 75.5937 72.3785 75.7512 71.9737 76.066C71.5689 76.3764 71.263 76.7992 71.0561 77.3345C70.8537 77.8698 70.7525 78.468 70.7525 79.1293C70.7525 79.8085 70.8559 80.4045 71.0628 80.9172C71.2697 81.43 71.5756 81.8304 71.9804 82.1182C72.3898 82.4061 72.8936 82.5501 73.4918 82.5501Z"/>
</mask>
<path d="M1.51811 84.3785V70.5604H3.60298V82.5838H9.86435V84.3785H1.51811ZM17.5862 84.5877C16.6146 84.5877 15.7667 84.365 15.0425 83.9197C14.3183 83.4744 13.7561 82.8514 13.3557 82.0508C12.9554 81.2501 12.7552 80.3145 12.7552 79.244C12.7552 78.1689 12.9554 77.2288 13.3557 76.4236C13.7561 75.6185 14.3183 74.9932 15.0425 74.5479C15.7667 74.1026 16.6146 73.88 17.5862 73.88C18.5578 73.88 19.4057 74.1026 20.1299 74.5479C20.8541 74.9932 21.4163 75.6185 21.8167 76.4236C22.217 77.2288 22.4172 78.1689 22.4172 79.244C22.4172 80.3145 22.217 81.2501 21.8167 82.0508C21.4163 82.8514 20.8541 83.4744 20.1299 83.9197C19.4057 84.365 18.5578 84.5877 17.5862 84.5877ZM17.5929 82.8942C18.2227 82.8942 18.7445 82.7277 19.1583 82.3949C19.5721 82.062 19.878 81.619 20.0759 81.0657C20.2783 80.5124 20.3795 79.9029 20.3795 79.2372C20.3795 78.576 20.2783 77.9687 20.0759 77.4155C19.878 76.8577 19.5721 76.4101 19.1583 76.0728C18.7445 75.7354 18.2227 75.5667 17.5929 75.5667C16.9587 75.5667 16.4324 75.7354 16.0141 76.0728C15.6003 76.4101 15.2922 76.8577 15.0898 77.4155C14.8918 77.9687 14.7929 78.576 14.7929 79.2372C14.7929 79.9029 14.8918 80.5124 15.0898 81.0657C15.2922 81.619 15.6003 82.062 16.0141 82.3949C16.4324 82.7277 16.9587 82.8942 17.5929 82.8942ZM28.825 84.6079C28.1683 84.6079 27.5745 84.4865 27.0438 84.2436C26.513 83.9962 26.0924 83.6386 25.782 83.1708C25.4762 82.703 25.3232 82.1295 25.3232 81.4503C25.3232 80.8655 25.4357 80.3842 25.6606 80.0064C25.8855 79.6285 26.1891 79.3294 26.5715 79.109C26.9538 78.8886 27.3811 78.7222 27.8534 78.6097C28.3257 78.4973 28.807 78.4118 29.2973 78.3533C29.9181 78.2814 30.4218 78.2229 30.8087 78.1779C31.1955 78.1284 31.4766 78.0497 31.6521 77.9418C31.8275 77.8338 31.9152 77.6584 31.9152 77.4155V77.3682C31.9152 76.779 31.7488 76.3224 31.4159 75.9986C31.0876 75.6747 30.5973 75.5128 29.945 75.5128C29.2658 75.5128 28.7306 75.6635 28.3392 75.9648C27.9524 76.2617 27.6847 76.5923 27.5363 76.9567L25.6404 76.5248C25.8653 75.8951 26.1936 75.3868 26.6254 75C27.0618 74.6087 27.5633 74.3253 28.1301 74.1498C28.6968 73.9699 29.2928 73.88 29.9181 73.88C30.3319 73.88 30.7704 73.9294 31.2337 74.0284C31.7016 74.1229 32.1379 74.2983 32.5427 74.5547C32.952 74.8111 33.2871 75.1777 33.548 75.6545C33.8089 76.1268 33.9394 76.7408 33.9394 77.4964V84.3785H31.9692V82.9616H31.8882C31.7578 83.2225 31.5621 83.4789 31.3012 83.7308C31.0403 83.9827 30.7052 84.1919 30.2959 84.3583C29.8866 84.5247 29.3963 84.6079 28.825 84.6079ZM29.2636 82.9886C29.8213 82.9886 30.2981 82.8784 30.694 82.658C31.0943 82.4376 31.3979 82.1497 31.6048 81.7944C31.8163 81.4345 31.922 81.0499 31.922 80.6406V79.3047C31.85 79.3766 31.7105 79.4441 31.5036 79.5071C31.3012 79.5656 31.0696 79.6173 30.8087 79.6623C30.5478 79.7028 30.2936 79.741 30.0462 79.777C29.7989 79.8085 29.5919 79.8355 29.4255 79.8579C29.0342 79.9074 28.6766 79.9906 28.3527 80.1076C28.0333 80.2245 27.777 80.3932 27.5835 80.6136C27.3946 80.8295 27.3002 81.1174 27.3002 81.4773C27.3002 81.9766 27.4846 82.3544 27.8534 82.6108C28.2223 82.8627 28.6923 82.9886 29.2636 82.9886ZM41.646 84.581C40.8094 84.581 40.0627 84.3673 39.406 83.94C38.7537 83.5082 38.241 82.8942 37.8676 82.098C37.4988 81.2973 37.3144 80.337 37.3144 79.217C37.3144 78.0969 37.501 77.1388 37.8744 76.3427C38.2522 75.5465 38.7695 74.937 39.4262 74.5142C40.0829 74.0914 40.8274 73.88 41.6595 73.88C42.3028 73.88 42.82 73.9879 43.2114 74.2038C43.6072 74.4152 43.9131 74.6626 44.129 74.946C44.3494 75.2294 44.5203 75.479 44.6418 75.6949H44.7632V70.5604H46.7806V84.3785H44.8104V82.766H44.6418C44.5203 82.9864 44.3449 83.2383 44.1155 83.5217C43.8906 83.805 43.5802 84.0524 43.1844 84.2638C42.7885 84.4752 42.2758 84.581 41.646 84.581ZM42.0913 82.8604C42.6716 82.8604 43.1619 82.7075 43.5622 82.4016C43.9671 82.0913 44.2729 81.6617 44.4798 81.1129C44.6912 80.5641 44.797 79.9254 44.797 79.1967C44.797 78.477 44.6935 77.8473 44.4866 77.3075C44.2797 76.7677 43.976 76.3472 43.5757 76.0458C43.1754 75.7444 42.6806 75.5937 42.0913 75.5937C41.4841 75.5937 40.9781 75.7512 40.5732 76.066C40.1684 76.3809 39.8625 76.8105 39.6556 77.3547C39.4532 77.899 39.352 78.513 39.352 79.1967C39.352 79.8894 39.4555 80.5124 39.6624 81.0657C39.8693 81.619 40.1751 82.0575 40.58 82.3814C40.9893 82.7007 41.4931 82.8604 42.0913 82.8604ZM50.8 84.3785V74.0149H52.8174V84.3785H50.8ZM51.8188 72.4158C51.4679 72.4158 51.1666 72.2989 50.9147 72.065C50.6673 71.8266 50.5436 71.5432 50.5436 71.2148C50.5436 70.882 50.6673 70.5986 50.9147 70.3647C51.1666 70.1263 51.4679 70.0071 51.8188 70.0071C52.1696 70.0071 52.4688 70.1263 52.7162 70.3647C52.9681 70.5986 53.094 70.882 53.094 71.2148C53.094 71.5432 52.9681 71.8266 52.7162 72.065C52.4688 72.2989 52.1696 72.4158 51.8188 72.4158ZM58.6888 78.2251V84.3785H56.6714V74.0149H58.6078V75.7017H58.736C58.9744 75.1529 59.3478 74.7121 59.8561 74.3792C60.3689 74.0464 61.0143 73.88 61.7925 73.88C62.4987 73.88 63.1172 74.0284 63.648 74.3253C64.1788 74.6176 64.5903 75.054 64.8827 75.6342C65.1751 76.2145 65.3213 76.9319 65.3213 77.7866V84.3785H63.3039V78.0295C63.3039 77.2783 63.1082 76.6913 62.7169 76.2685C62.3255 75.8411 61.788 75.6275 61.1043 75.6275C60.6365 75.6275 60.2204 75.7287 59.8561 75.9311C59.4962 76.1335 59.2106 76.4304 58.9992 76.8217C58.7923 77.2086 58.6888 77.6764 58.6888 78.2251ZM73.512 88.4808C72.6889 88.4808 71.9804 88.3729 71.3867 88.1569C70.7974 87.941 70.3161 87.6554 69.9428 87.3001C69.5695 86.9447 69.2906 86.5556 69.1062 86.1328L70.8402 85.4176C70.9616 85.6155 71.1236 85.8247 71.326 86.0451C71.5329 86.27 71.8118 86.4612 72.1626 86.6186C72.518 86.776 72.9745 86.8547 73.5323 86.8547C74.297 86.8547 74.929 86.6681 75.4282 86.2947C75.9275 85.9259 76.1772 85.3366 76.1772 84.527V82.4893H76.049C75.9275 82.7097 75.7521 82.9549 75.5227 83.2248C75.2978 83.4947 74.9874 83.7286 74.5916 83.9265C74.1958 84.1244 73.6807 84.2234 73.0465 84.2234C72.2278 84.2234 71.4902 84.0322 70.8334 83.6498C70.1812 83.263 69.6639 82.694 69.2816 81.9428C68.9037 81.1871 68.7148 80.2583 68.7148 79.1562C68.7148 78.0542 68.9015 77.1096 69.2748 76.3224C69.6527 75.5353 70.17 74.9325 70.8267 74.5142C71.4834 74.0914 72.2278 73.88 73.06 73.88C73.7032 73.88 74.2227 73.9879 74.6186 74.2038C75.0144 74.4152 75.3225 74.6626 75.5429 74.946C75.7678 75.2294 75.941 75.479 76.0625 75.6949H76.2109V74.0149H78.1878V84.6079C78.1878 85.4986 77.9809 86.2295 77.5671 86.8008C77.1533 87.372 76.5933 87.7949 75.887 88.0692C75.1853 88.3436 74.3937 88.4808 73.512 88.4808ZM73.4918 82.5501C74.0721 82.5501 74.5624 82.4151 74.9627 82.1452C75.3675 81.8708 75.6734 81.4795 75.8803 80.9712C76.0917 80.4584 76.1974 79.8444 76.1974 79.1293C76.1974 78.432 76.094 77.8181 75.887 77.2873C75.6801 76.7565 75.3765 76.3427 74.9762 76.0458C74.5759 75.7444 74.0811 75.5937 73.4918 75.5937C72.8846 75.5937 72.3785 75.7512 71.9737 76.066C71.5689 76.3764 71.263 76.7992 71.0561 77.3345C70.8537 77.8698 70.7525 78.468 70.7525 79.1293C70.7525 79.8085 70.8559 80.4045 71.0628 80.9172C71.2697 81.43 71.5756 81.8304 71.9804 82.1182C72.3898 82.4061 72.8936 82.5501 73.4918 82.5501Z" fill="black"/>
<path d="M1.51811 84.3785H0.518111V85.3785H1.51811V84.3785ZM1.51811 70.5604V69.5604H0.518111V70.5604H1.51811ZM3.60298 70.5604H4.60298V69.5604H3.60298V70.5604ZM3.60298 82.5838H2.60298V83.5838H3.60298V82.5838ZM9.86435 82.5838H10.8643V81.5838H9.86435V82.5838ZM9.86435 84.3785V85.3785H10.8643V84.3785H9.86435ZM2.51811 84.3785V70.5604H0.518111V84.3785H2.51811ZM1.51811 71.5604H3.60298V69.5604H1.51811V71.5604ZM2.60298 70.5604V82.5838H4.60298V70.5604H2.60298ZM3.60298 83.5838H9.86435V81.5838H3.60298V83.5838ZM8.86435 82.5838V84.3785H10.8643V82.5838H8.86435ZM9.86435 83.3785H1.51811V85.3785H9.86435V83.3785ZM13.3557 82.0508L14.2502 81.6036L13.3557 82.0508ZM13.3557 76.4236L12.4603 75.9784L13.3557 76.4236ZM15.0425 74.5479L15.5663 75.3998L15.5663 75.3998L15.0425 74.5479ZM20.1299 74.5479L19.6061 75.3998V75.3998L20.1299 74.5479ZM21.8167 82.0508L20.9222 81.6036L21.8167 82.0508ZM20.1299 83.9197L20.6537 84.7716L20.1299 83.9197ZM19.1583 82.3949L18.5315 81.6157V81.6157L19.1583 82.3949ZM20.0759 81.0657L19.1368 80.7221L19.1343 80.7289L20.0759 81.0657ZM20.0759 77.4155L19.1334 77.7499L19.1368 77.7591L20.0759 77.4155ZM19.1583 76.0728L18.5264 76.8479V76.8479L19.1583 76.0728ZM16.0141 76.0728L15.3864 75.2944L15.3823 75.2977L16.0141 76.0728ZM15.0898 77.4155L14.1497 77.0743L14.1482 77.0787L15.0898 77.4155ZM15.0898 81.0657L14.1482 81.4025L14.1506 81.4093L15.0898 81.0657ZM16.0141 82.3949L15.3873 83.1741L15.3915 83.1774L16.0141 82.3949ZM17.5862 83.5877C16.7726 83.5877 16.1115 83.4031 15.5663 83.0679L14.5187 84.7716C15.422 85.327 16.4567 85.5877 17.5862 85.5877V83.5877ZM15.5663 83.0679C15.0096 82.7255 14.5717 82.2467 14.2502 81.6036L12.4613 82.498C12.9404 83.4562 13.6271 84.2233 14.5187 84.7716L15.5663 83.0679ZM14.2502 81.6036C13.9316 80.9664 13.7552 80.1894 13.7552 79.244H11.7552C11.7552 80.4396 11.9792 81.5338 12.4613 82.498L14.2502 81.6036ZM13.7552 79.244C13.7552 78.2935 13.9318 77.5112 14.2512 76.8689L12.4603 75.9784C11.979 76.9464 11.7552 78.0443 11.7552 79.244H13.7552ZM14.2512 76.8689C14.5732 76.2212 15.011 75.7413 15.5663 75.3998L14.5187 73.6961C13.6257 74.2452 12.939 75.0157 12.4603 75.9784L14.2512 76.8689ZM15.5663 75.3998C16.1115 75.0646 16.7726 74.88 17.5862 74.88V72.88C16.4567 72.88 15.422 73.1407 14.5187 73.6961L15.5663 75.3998ZM17.5862 74.88C18.3998 74.88 19.0609 75.0646 19.6061 75.3998L20.6537 73.6961C19.7504 73.1407 18.7157 72.88 17.5862 72.88V74.88ZM19.6061 75.3998C20.1614 75.7413 20.5992 76.2212 20.9212 76.8689L22.7121 75.9784C22.2334 75.0157 21.5467 74.2452 20.6537 73.6961L19.6061 75.3998ZM20.9212 76.8689C21.2406 77.5112 21.4172 78.2935 21.4172 79.244H23.4172C23.4172 78.0443 23.1934 76.9464 22.7121 75.9784L20.9212 76.8689ZM21.4172 79.244C21.4172 80.1894 21.2408 80.9664 20.9222 81.6036L22.7111 82.498C23.1932 81.5338 23.4172 80.4396 23.4172 79.244H21.4172ZM20.9222 81.6036C20.6007 82.2467 20.1628 82.7255 19.6061 83.0679L20.6537 84.7716C21.5453 84.2233 22.232 83.4562 22.7111 82.498L20.9222 81.6036ZM19.6061 83.0679C19.0609 83.4031 18.3998 83.5877 17.5862 83.5877V85.5877C18.7157 85.5877 19.7504 85.327 20.6537 84.7716L19.6061 83.0679ZM17.5929 83.8942C18.4066 83.8942 19.162 83.6752 19.785 83.1741L18.5315 81.6157C18.3269 81.7802 18.0388 81.8942 17.5929 81.8942V83.8942ZM19.785 83.1741C20.3576 82.7136 20.7642 82.1104 21.0175 81.4025L19.1343 80.7289C18.9917 81.1275 18.7866 81.4105 18.5315 81.6157L19.785 83.1741ZM21.015 81.4093C21.2626 80.7326 21.3795 80.005 21.3795 79.2372H19.3795C19.3795 79.8008 19.294 80.2922 19.1368 80.7221L21.015 81.4093ZM21.3795 79.2372C21.3795 78.473 21.2623 77.7478 21.015 77.0719L19.1368 77.7591C19.2943 78.1896 19.3795 78.679 19.3795 79.2372H21.3795ZM21.0183 77.0811C20.766 76.37 20.3609 75.763 19.7901 75.2977L18.5264 76.8479C18.7833 77.0573 18.9899 77.3454 19.1335 77.7499L21.0183 77.0811ZM19.7901 75.2977C19.1671 74.7897 18.4097 74.5667 17.5929 74.5667V76.5667C18.0356 76.5667 18.3219 76.6811 18.5264 76.8479L19.7901 75.2977ZM17.5929 74.5667C16.7732 74.5667 16.0133 74.7888 15.3864 75.2944L16.6419 76.8512C16.8516 76.682 17.1442 76.5667 17.5929 76.5667V74.5667ZM15.3823 75.2977C14.8132 75.7616 14.4067 76.3662 14.1497 77.0743L16.0298 77.7566C16.1776 77.3492 16.3874 77.0587 16.646 76.8479L15.3823 75.2977ZM14.1482 77.0787C13.9071 77.7527 13.7929 78.4754 13.7929 79.2372H15.7929C15.7929 78.6765 15.8766 78.1848 16.0313 77.7523L14.1482 77.0787ZM13.7929 79.2372C13.7929 80.0026 13.9068 80.7278 14.1482 81.4025L16.0313 80.7289C15.8768 80.297 15.7929 79.8032 15.7929 79.2372H13.7929ZM14.1506 81.4093C14.4085 82.1142 14.8166 82.715 15.3874 83.1741L16.6409 81.6157C16.384 81.4091 16.1758 81.1237 16.0289 80.7221L14.1506 81.4093ZM15.3915 83.1774C16.0183 83.6761 16.7764 83.8942 17.5929 83.8942V81.8942C17.1411 81.8942 16.8466 81.7793 16.6368 81.6124L15.3915 83.1774ZM27.0438 84.2436L26.6213 85.15L26.6276 85.1529L27.0438 84.2436ZM25.782 83.1708L24.9451 83.7181L24.9488 83.7236L25.782 83.1708ZM25.6606 80.0064L26.5199 80.5179L25.6606 80.0064ZM26.5715 79.109L27.0709 79.9754V79.9754L26.5715 79.109ZM29.2973 78.3533L29.1821 77.36L29.1789 77.3604L29.2973 78.3533ZM30.8087 78.1779L30.9242 79.1713L30.9356 79.1698L30.8087 78.1779ZM31.6521 77.9418L32.1762 78.7934V78.7934L31.6521 77.9418ZM31.4159 75.9986L30.7137 76.7106L30.7186 76.7153L31.4159 75.9986ZM28.3392 75.9648L28.948 76.7581L28.9494 76.7571L28.3392 75.9648ZM27.5363 76.9567L27.3142 77.9317L28.1421 78.1202L28.4624 77.334L27.5363 76.9567ZM25.6404 76.5248L24.6986 76.1885L24.3196 77.2497L25.4183 77.4999L25.6404 76.5248ZM26.6254 75L27.2927 75.7448L27.2931 75.7444L26.6254 75ZM28.1301 74.1498L28.4257 75.1052L28.4326 75.103L28.1301 74.1498ZM31.2337 74.0284L31.0249 75.0064L31.0358 75.0086L31.2337 74.0284ZM32.5427 74.5547L32.0076 75.3995L32.0119 75.4022L32.5427 74.5547ZM33.548 75.6545L32.6708 76.1345L32.6727 76.138L33.548 75.6545ZM33.9394 84.3785V85.3785H34.9394V84.3785H33.9394ZM31.9692 84.3785H30.9692V85.3785H31.9692V84.3785ZM31.9692 82.9616H32.9692V81.9616H31.9692V82.9616ZM31.8882 82.9616V81.9616H31.2702L30.9938 82.5144L31.8882 82.9616ZM31.3012 83.7308L30.6066 83.0114L31.3012 83.7308ZM30.2959 84.3583L29.9192 83.4319L30.2959 84.3583ZM30.694 82.658L30.2117 81.782L30.2075 81.7843L30.694 82.658ZM31.6048 81.7944L30.7426 81.2878L30.7407 81.2912L31.6048 81.7944ZM31.922 79.3047H32.922V76.8905L31.2149 78.5976L31.922 79.3047ZM31.5036 79.5071L31.7812 80.4678L31.788 80.4658L31.7948 80.4638L31.5036 79.5071ZM30.8087 79.6623L30.962 80.6504L30.9703 80.6492L30.9786 80.6477L30.8087 79.6623ZM30.0462 79.777L30.1725 80.769L30.1814 80.7678L30.1902 80.7666L30.0462 79.777ZM29.4255 79.8579L29.551 80.8501L29.5594 80.8489L29.4255 79.8579ZM28.3527 80.1076L28.0131 79.167L28.0088 79.1686L28.3527 80.1076ZM27.5835 80.6136L26.8319 79.954L26.831 79.9551L27.5835 80.6136ZM27.8534 82.6108L27.2826 83.4319L27.2895 83.4366L27.8534 82.6108ZM28.825 83.6079C28.2939 83.6079 27.8446 83.5104 27.4599 83.3343L26.6276 85.1529C27.3044 85.4626 28.0427 85.6079 28.825 85.6079V83.6079ZM27.4662 83.3372C27.0948 83.1641 26.8194 82.9256 26.6153 82.6179L24.9488 83.7236C25.3654 84.3516 25.9312 84.8283 26.6213 85.15L27.4662 83.3372ZM26.619 82.6235C26.4405 82.3505 26.3232 81.9773 26.3232 81.4503H24.3232C24.3232 82.2817 24.5119 83.0555 24.9451 83.718L26.619 82.6235ZM26.3232 81.4503C26.3232 80.9879 26.4127 80.698 26.5199 80.5179L24.8013 79.4949C24.4587 80.0704 24.3232 80.7431 24.3232 81.4503H26.3232ZM26.5199 80.5179C26.6569 80.2877 26.8363 80.1106 27.0709 79.9754L26.072 78.2427C25.5419 78.5483 25.1141 78.9693 24.8013 79.4949L26.5199 80.5179ZM27.0709 79.9754C27.3617 79.8077 27.6974 79.6748 28.085 79.5825L27.6218 77.6369C27.0649 77.7695 26.5459 77.9695 26.072 78.2427L27.0709 79.9754ZM28.085 79.5825C28.5194 79.4791 28.9629 79.4003 29.4157 79.3463L29.1789 77.3604C28.6512 77.4233 28.132 77.5154 27.6218 77.6369L28.085 79.5825ZM29.4125 79.3467C30.0333 79.2747 30.5372 79.2162 30.9242 79.1712L30.6932 77.1846C30.3065 77.2296 29.8028 77.288 29.1821 77.36L29.4125 79.3467ZM30.9356 79.1698C31.3596 79.1156 31.8146 79.0159 32.1762 78.7934L31.128 77.0901C31.1448 77.0797 31.1251 77.095 31.04 77.1188C30.9588 77.1415 30.8419 77.1655 30.6818 77.186L30.9356 79.1698ZM32.1762 78.7934C32.7046 78.4682 32.9152 77.9326 32.9152 77.4155H30.9152C30.9152 77.4179 30.9148 77.3623 30.955 77.282C30.9988 77.1945 31.0653 77.1287 31.128 77.0901L32.1762 78.7934ZM32.9152 77.4155V77.3682H30.9152V77.4155H32.9152ZM32.9152 77.3682C32.9152 76.5856 32.6884 75.8414 32.1133 75.2818L30.7186 76.7153C30.8092 76.8035 30.9152 76.9724 30.9152 77.3682H32.9152ZM32.1181 75.2866C31.5368 74.7132 30.7503 74.5128 29.945 74.5128V76.5128C30.4443 76.5128 30.6383 76.6362 30.7137 76.7105L32.1181 75.2866ZM29.945 74.5128C29.1267 74.5128 28.3505 74.694 27.7291 75.1725L28.9494 76.7571C29.1106 76.6329 29.405 76.5128 29.945 76.5128V74.5128ZM27.7304 75.1715C27.2362 75.5508 26.8399 76.0156 26.6102 76.5794L28.4624 77.334C28.5296 77.1691 28.6686 76.9726 28.948 76.7581L27.7304 75.1715ZM27.7584 75.9816L25.8624 75.5498L25.4183 77.4999L27.3142 77.9317L27.7584 75.9816ZM26.5821 76.8612C26.7596 76.3641 27.0028 76.0045 27.2927 75.7448L25.9582 74.2552C25.3844 74.7692 24.9709 75.4261 24.6986 76.1885L26.5821 76.8612ZM27.2931 75.7444C27.6207 75.4506 27.995 75.2385 28.4257 75.1051L27.8344 73.1946C27.1316 73.4121 26.5028 73.7667 25.9577 74.2556L27.2931 75.7444ZM28.4326 75.103C28.8966 74.9557 29.3902 74.88 29.9181 74.88V72.88C29.1955 72.88 28.497 72.9842 27.8275 73.1967L28.4326 75.103ZM29.9181 74.88C30.2524 74.88 30.6206 74.92 31.0249 75.0063L31.4426 73.0505C30.9203 72.9389 30.4113 72.88 29.9181 72.88V74.88ZM31.0358 75.0086C31.3834 75.0788 31.7055 75.2082 32.0076 75.3995L33.0777 73.7099C32.5702 73.3884 32.0197 73.1669 31.4317 73.0482L31.0358 75.0086ZM32.0119 75.4022C32.2587 75.5568 32.4815 75.7886 32.6708 76.1345L34.4253 75.1745C34.0927 74.5667 33.6453 74.0653 33.0735 73.7072L32.0119 75.4022ZM32.6727 76.138C32.8256 76.4148 32.9394 76.8458 32.9394 77.4964H34.9394C34.9394 76.6357 34.7922 75.8388 34.4234 75.1709L32.6727 76.138ZM32.9394 77.4964V84.3785H34.9394V77.4964H32.9394ZM33.9394 83.3785H31.9692V85.3785H33.9394V83.3785ZM32.9692 84.3785V82.9616H30.9692V84.3785H32.9692ZM31.9692 81.9616H31.8882V83.9616H31.9692V81.9616ZM30.9938 82.5144C30.9247 82.6527 30.805 82.8199 30.6066 83.0114L31.9958 84.4502C32.3192 84.138 32.5909 83.7924 32.7826 83.4089L30.9938 82.5144ZM30.6066 83.0114C30.4552 83.1576 30.2355 83.3034 29.9192 83.4319L30.6725 85.2847C31.175 85.0804 31.6255 84.8078 31.9958 84.4502L30.6066 83.0114ZM29.9192 83.4319C29.6589 83.5378 29.3032 83.6079 28.825 83.6079V85.6079C29.4893 85.6079 30.1142 85.5117 30.6725 85.2847L29.9192 83.4319ZM29.2636 83.9886C29.9527 83.9886 30.6052 83.852 31.1805 83.5317L30.2075 81.7843C29.9911 81.9048 29.69 81.9886 29.2636 81.9886V83.9886ZM31.1763 83.534C31.7172 83.2362 32.161 82.8265 32.469 82.2976L30.7407 81.2912C30.6348 81.473 30.4715 81.639 30.2117 81.782L31.1763 83.534ZM32.4671 82.3009C32.7668 81.7907 32.922 81.2317 32.922 80.6406H30.922C30.922 80.8682 30.8657 81.0784 30.7426 81.2878L32.4671 82.3009ZM32.922 80.6406V79.3047H30.922V80.6406H32.922ZM31.2149 78.5976C31.2351 78.5773 31.2535 78.5614 31.2683 78.5496C31.2832 78.5378 31.2957 78.529 31.3047 78.523C31.3222 78.5115 31.3314 78.5074 31.3278 78.5091C31.3247 78.5106 31.314 78.5155 31.2937 78.5232C31.2736 78.5307 31.2469 78.5399 31.2125 78.5504L31.7948 80.4638C32.0197 80.3953 32.3696 80.2713 32.6291 80.0118L31.2149 78.5976ZM31.2261 78.5464C31.0667 78.5924 30.8721 78.6366 30.6388 78.6768L30.9786 80.6477C31.267 80.598 31.5358 80.5387 31.7812 80.4678L31.2261 78.5464ZM30.6553 78.6741C30.3974 78.7141 30.1464 78.7519 29.9023 78.7874L30.1902 80.7666C30.4409 80.7301 30.6982 80.6914 30.962 80.6504L30.6553 78.6741ZM29.92 78.785C29.6711 78.8167 29.4615 78.844 29.2916 78.867L29.5594 80.8489C29.7224 80.8269 29.9266 80.8003 30.1725 80.769L29.92 78.785ZM29.3001 78.8658C28.846 78.9233 28.4154 79.0218 28.0131 79.167L28.6924 81.0481C28.9378 80.9595 29.2223 80.8916 29.5509 80.85L29.3001 78.8658ZM28.0088 79.1686C27.5576 79.3338 27.1522 79.589 26.8319 79.954L28.3352 81.2732C28.4017 81.1974 28.5091 81.1153 28.6966 81.0466L28.0088 79.1686ZM26.831 79.9551C26.4451 80.3962 26.3002 80.9389 26.3002 81.4773H28.3002C28.3002 81.3839 28.3125 81.3297 28.3212 81.3032C28.3289 81.2797 28.335 81.2733 28.3361 81.2721L26.831 79.9551ZM26.3002 81.4773C26.3002 82.2614 26.6117 82.9655 27.2826 83.4319L28.4242 81.7897C28.3574 81.7433 28.3002 81.6917 28.3002 81.4773H26.3002ZM27.2895 83.4366C27.8654 83.8299 28.547 83.9886 29.2636 83.9886V81.9886C28.8376 81.9886 28.5792 81.8955 28.4174 81.785L27.2895 83.4366ZM39.406 83.94L38.8539 84.7738L38.8606 84.7782L39.406 83.94ZM37.8676 82.098L36.9593 82.5164L36.9622 82.5226L37.8676 82.098ZM37.8744 76.3427L36.9709 75.9139L36.969 75.9181L37.8744 76.3427ZM39.4262 74.5142L39.9676 75.355V75.355L39.4262 74.5142ZM43.2114 74.2038L42.7282 75.0795L42.7403 75.0859L43.2114 74.2038ZM44.129 74.946L43.3335 75.5521L43.3396 75.56L44.129 74.946ZM44.6418 75.6949L43.7702 76.1852L44.0569 76.6949H44.6418V75.6949ZM44.7632 75.6949V76.6949H45.7632V75.6949H44.7632ZM44.7632 70.5604V69.5604H43.7632V70.5604H44.7632ZM46.7806 70.5604H47.7806V69.5604H46.7806V70.5604ZM46.7806 84.3785V85.3785H47.7806V84.3785H46.7806ZM44.8104 84.3785H43.8104V85.3785H44.8104V84.3785ZM44.8104 82.766H45.8104V81.766H44.8104V82.766ZM44.6418 82.766V81.766H44.051L43.7659 82.2834L44.6418 82.766ZM44.1155 83.5217L43.3382 82.8924L43.3322 82.9L44.1155 83.5217ZM43.5622 82.4016L44.1693 83.1962L44.1707 83.1952L43.5622 82.4016ZM44.4798 81.1129L43.5467 80.7534L43.5441 80.7601L44.4798 81.1129ZM44.4866 77.3075L43.5528 77.6655V77.6655L44.4866 77.3075ZM43.5757 76.0458L42.9743 76.8447V76.8447L43.5757 76.0458ZM40.5732 76.066L41.1872 76.8554V76.8554L40.5732 76.066ZM39.6556 77.3547L38.7209 76.9994L38.7183 77.0062L39.6556 77.3547ZM39.6624 81.0657L40.599 80.7154V80.7154L39.6624 81.0657ZM40.58 82.3814L39.9552 83.1623L39.9648 83.1698L40.58 82.3814ZM41.646 83.581C40.9893 83.581 40.4346 83.4162 39.9514 83.1018L38.8606 84.7782C39.6908 85.3183 40.6295 85.581 41.646 85.581V83.581ZM39.958 83.1062C39.4773 82.7879 39.0783 82.3245 38.773 81.6734L36.9622 82.5226C37.4036 83.4638 38.0302 84.2284 38.8539 84.7738L39.958 83.1062ZM38.7759 81.6796C38.4815 81.0406 38.3144 80.2303 38.3144 79.217H36.3144C36.3144 80.4437 36.516 81.5541 36.9594 82.5164L38.7759 81.6796ZM38.3144 79.217C38.3144 78.2049 38.4833 77.3994 38.7798 76.7672L36.969 75.9181C36.5187 76.8783 36.3144 77.989 36.3144 79.217H38.3144ZM38.7778 76.7714C39.0862 76.1215 39.487 75.6644 39.9676 75.355L38.8849 73.6734C38.052 74.2096 37.4182 74.9715 36.9709 75.9139L38.7778 76.7714ZM39.9676 75.355C40.4521 75.043 41.0062 74.88 41.6595 74.88V72.88C40.6485 72.88 39.7137 73.1397 38.8849 73.6734L39.9676 75.355ZM41.6595 74.88C42.2033 74.88 42.5357 74.9731 42.7283 75.0794L43.6944 73.3282C43.1044 73.0027 42.4022 72.88 41.6595 72.88V74.88ZM42.7403 75.0859C43.0413 75.2467 43.2242 75.4085 43.3335 75.5521L44.9244 74.34C44.602 73.9167 44.1731 73.5838 43.6825 73.3217L42.7403 75.0859ZM43.3396 75.56C43.5418 75.8199 43.6812 76.027 43.7702 76.1852L45.5133 75.2047C45.3595 74.9311 45.1569 74.6388 44.9183 74.3321L43.3396 75.56ZM44.6418 76.6949H44.7632V74.6949H44.6418V76.6949ZM45.7632 75.6949V70.5604H43.7632V75.6949H45.7632ZM44.7632 71.5604H46.7806V69.5604H44.7632V71.5604ZM45.7806 70.5604V84.3785H47.7806V70.5604H45.7806ZM46.7806 83.3785H44.8104V85.3785H46.7806V83.3785ZM45.8104 84.3785V82.766H43.8104V84.3785H45.8104ZM44.8104 81.766H44.6418V83.766H44.8104V81.766ZM43.7659 82.2834C43.6825 82.4348 43.5455 82.6365 43.3382 82.8925L44.8927 84.1508C45.1443 83.8401 45.3581 83.538 45.5176 83.2486L43.7659 82.2834ZM43.3322 82.9C43.2103 83.0536 43.0165 83.2198 42.7133 83.3818L43.6555 85.1459C44.1439 84.885 44.5709 84.5564 44.8988 84.1433L43.3322 82.9ZM42.7133 83.3818C42.509 83.4909 42.1739 83.581 41.646 83.581V85.581C42.3776 85.581 43.0681 85.4596 43.6555 85.1459L42.7133 83.3818ZM42.0913 83.8604C42.8563 83.8604 43.5689 83.655 44.1693 83.1962L42.9551 81.607C42.7549 81.76 42.4869 81.8604 42.0913 81.8604V83.8604ZM44.1707 83.1952C44.7447 82.7551 45.1529 82.1624 45.4155 81.4657L43.5441 80.7601C43.393 81.161 43.1894 81.4274 42.9538 81.608L44.1707 83.1952ZM45.413 81.4724C45.6777 80.7851 45.797 80.02 45.797 79.1967H43.797C43.797 79.8309 43.7047 80.3431 43.5467 80.7534L45.413 81.4724ZM45.797 79.1967C45.797 78.3835 45.6803 77.6278 45.4203 76.9496L43.5528 77.6655C43.7067 78.0668 43.797 78.5705 43.797 79.1967H45.797ZM45.4203 76.9496C45.1568 76.262 44.7493 75.6776 44.1772 75.2469L42.9743 76.8447C43.2028 77.0167 43.4026 77.2735 43.5528 77.6655L45.4203 76.9496ZM44.1772 75.2469C43.5743 74.7931 42.8581 74.5937 42.0913 74.5937V76.5937C42.5031 76.5937 42.7764 76.6958 42.9743 76.8447L44.1772 75.2469ZM42.0913 74.5937C41.3042 74.5937 40.5705 74.8013 39.9593 75.2767L41.1872 76.8554C41.3857 76.701 41.664 76.5937 42.0913 76.5937V74.5937ZM39.9593 75.2767C39.391 75.7187 38.9839 76.3075 38.7209 76.9994L40.5903 77.7101C40.7411 77.3134 40.9458 77.0431 41.1872 76.8554L39.9593 75.2767ZM38.7183 77.0062C38.4678 77.6798 38.352 78.4147 38.352 79.1967H40.352C40.352 78.6113 40.4386 78.1182 40.5929 77.7033L38.7183 77.0062ZM38.352 79.1967C38.352 79.9888 38.4704 80.7332 38.7257 81.416L40.599 80.7154C40.4405 80.2917 40.352 79.7901 40.352 79.1967H38.352ZM38.7257 81.416C38.9869 82.1143 39.3908 82.7106 39.9553 83.1622L41.2047 81.6005C40.9595 81.4044 40.7517 81.1236 40.599 80.7154L38.7257 81.416ZM39.9648 83.1698C40.576 83.6466 41.3057 83.8604 42.0913 83.8604V81.8604C41.6805 81.8604 41.4026 81.7549 41.1951 81.593L39.9648 83.1698ZM50.8 84.3785H49.8V85.3785H50.8V84.3785ZM50.8 74.0149V73.0149H49.8V74.0149H50.8ZM52.8174 74.0149H53.8174V73.0149H52.8174V74.0149ZM52.8174 84.3785V85.3785H53.8174V84.3785H52.8174ZM50.9147 72.065L50.2208 72.7851L50.2274 72.7915L50.2342 72.7978L50.9147 72.065ZM50.9147 70.3647L51.6017 71.0913L51.6021 71.091L50.9147 70.3647ZM52.7162 70.3647L52.0223 71.0848L52.0289 71.0912L52.0357 71.0975L52.7162 70.3647ZM52.7162 72.065L53.4032 72.7916L53.4035 72.7913L52.7162 72.065ZM51.8 84.3785V74.0149H49.8V84.3785H51.8ZM50.8 75.0149H52.8174V73.0149H50.8V75.0149ZM51.8174 74.0149V84.3785H53.8174V74.0149H51.8174ZM52.8174 83.3785H50.8V85.3785H52.8174V83.3785ZM51.8188 71.4158C51.7146 71.4158 51.6579 71.3904 51.5951 71.3322L50.2342 72.7978C50.6753 73.2073 51.2213 73.4158 51.8188 73.4158V71.4158ZM51.6086 71.3449C51.5688 71.3066 51.5567 71.2823 51.5528 71.2736C51.5494 71.2658 51.5436 71.25 51.5436 71.2148H49.5436C49.5436 71.8286 49.7879 72.3679 50.2208 72.7851L51.6086 71.3449ZM51.5436 71.2148C51.5436 71.1754 51.5502 71.1588 51.5528 71.1527C51.5557 71.1461 51.5657 71.1253 51.6017 71.0913L50.2277 69.638C49.7856 70.056 49.5436 70.6 49.5436 71.2148H51.5436ZM51.6021 71.091C51.6658 71.0306 51.7203 71.0071 51.8188 71.0071V69.0071C51.2156 69.0071 50.6673 69.222 50.2273 69.6384L51.6021 71.091ZM51.8188 71.0071C51.917 71.0071 51.9656 71.0302 52.0223 71.0848L53.4101 69.6446C52.9719 69.2224 52.4223 69.0071 51.8188 69.0071V71.0071ZM52.0357 71.0975C52.0734 71.1325 52.0833 71.1534 52.0857 71.1588C52.0878 71.1634 52.094 71.1779 52.094 71.2148H54.094C54.094 70.5938 53.8447 70.048 53.3966 69.6319L52.0357 71.0975ZM52.094 71.2148C52.094 71.2475 52.0886 71.2611 52.0857 71.2675C52.0824 71.2751 52.0702 71.2995 52.0288 71.3387L53.4035 72.7913C53.8424 72.3759 54.094 71.8348 54.094 71.2148H52.094ZM52.0292 71.3383C51.9736 71.3908 51.9228 71.4158 51.8188 71.4158V73.4158C52.4165 73.4158 52.9639 73.2069 53.4032 72.7916L52.0292 71.3383ZM58.6888 84.3785V85.3785H59.6888V84.3785H58.6888ZM56.6714 84.3785H55.6714V85.3785H56.6714V84.3785ZM56.6714 74.0149V73.0149H55.6714V74.0149H56.6714ZM58.6078 74.0149H59.6078V73.0149H58.6078V74.0149ZM58.6078 75.7017H57.6078V76.7017H58.6078V75.7017ZM58.736 75.7017V76.7017H59.3919L59.6532 76.1001L58.736 75.7017ZM59.8561 74.3792L59.3116 73.5405L59.3082 73.5427L59.8561 74.3792ZM63.648 74.3253L63.1598 75.198L63.1655 75.2012L63.648 74.3253ZM64.8827 75.6342L63.9897 76.0842V76.0842L64.8827 75.6342ZM65.3213 84.3785V85.3785H66.3213V84.3785H65.3213ZM63.3039 84.3785H62.3039V85.3785H63.3039V84.3785ZM62.7169 76.2685L61.9794 76.9438L61.983 76.9477L62.7169 76.2685ZM59.8561 75.9311L59.3704 75.0569L59.3658 75.0595L59.8561 75.9311ZM58.9992 76.8217L58.1194 76.3464L58.1174 76.3501L58.9992 76.8217ZM57.6888 78.2251V84.3785H59.6888V78.2251H57.6888ZM58.6888 83.3785H56.6714V85.3785H58.6888V83.3785ZM57.6714 84.3785V74.0149H55.6714V84.3785H57.6714ZM56.6714 75.0149H58.6078V73.0149H56.6714V75.0149ZM57.6078 74.0149V75.7017H59.6078V74.0149H57.6078ZM58.6078 76.7017H58.736V74.7017H58.6078V76.7017ZM59.6532 76.1001C59.8126 75.7332 60.0562 75.4436 60.4039 75.2158L59.3082 73.5427C58.6394 73.9807 58.1363 74.5726 57.8189 75.3032L59.6532 76.1001ZM60.4005 75.218C60.7123 75.0157 61.1552 74.88 61.7925 74.88V72.88C60.8734 72.88 60.0254 73.0771 59.3116 73.5405L60.4005 75.218ZM61.7925 74.88C62.3556 74.88 62.8007 74.9972 63.1598 75.198L64.1361 73.4525C63.4337 73.0596 62.6418 72.88 61.7925 72.88V74.88ZM63.1655 75.2012C63.5066 75.3891 63.7812 75.6704 63.9897 76.0842L65.7757 75.1842C65.3995 74.4375 64.8509 73.8462 64.1305 73.4494L63.1655 75.2012ZM63.9897 76.0842C64.1931 76.488 64.3213 77.0409 64.3213 77.7866H66.3213C66.3213 76.823 66.157 75.941 65.7757 75.1842L63.9897 76.0842ZM64.3213 77.7866V84.3785H66.3213V77.7866H64.3213ZM65.3213 83.3785H63.3039V85.3785H65.3213V83.3785ZM64.3039 84.3785V78.0295H62.3039V84.3785H64.3039ZM64.3039 78.0295C64.3039 77.1052 64.0601 76.2475 63.4508 75.5892L61.983 76.9477C62.1563 77.135 62.3039 77.4514 62.3039 78.0295H64.3039ZM63.4543 75.5931C62.8393 74.9215 62.0134 74.6275 61.1043 74.6275V76.6275C61.5626 76.6275 61.8117 76.7608 61.9794 76.9438L63.4543 75.5931ZM61.1043 74.6275C60.4877 74.6275 59.9008 74.7623 59.3704 75.0569L60.3417 76.8053C60.54 76.6951 60.7853 76.6275 61.1043 76.6275V74.6275ZM59.3658 75.0595C58.8285 75.3618 58.4133 75.8022 58.1194 76.3464L59.879 77.297C60.0078 77.0585 60.1639 76.9053 60.3463 76.8027L59.3658 75.0595ZM58.1174 76.3501C57.8158 76.914 57.6888 77.5523 57.6888 78.2251H59.6888C59.6888 77.8004 59.7688 77.5032 59.881 77.2934L58.1174 76.3501ZM71.3867 88.1569L71.0426 89.0959L71.045 89.0967L71.3867 88.1569ZM69.9428 87.3001L70.6322 86.5757L69.9428 87.3001ZM69.1062 86.1328L68.7249 85.2083L67.7816 85.5974L68.1896 86.5326L69.1062 86.1328ZM70.8402 85.4176L71.6925 84.8946L71.2467 84.1682L70.4589 84.4931L70.8402 85.4176ZM71.326 86.0451L70.5894 86.7215L70.59 86.7221L71.326 86.0451ZM72.1626 86.6186L71.7532 87.531L71.7576 87.5329L72.1626 86.6186ZM75.4282 86.2947L74.834 85.4904L74.8294 85.4939L75.4282 86.2947ZM76.1772 82.4893H77.1772V81.4893H76.1772V82.4893ZM76.049 82.4893V81.4893H75.4582L75.1731 82.0067L76.049 82.4893ZM75.5227 83.2248L74.7607 82.5771L74.7545 82.5846L75.5227 83.2248ZM74.5916 83.9265L74.1444 83.0321L74.5916 83.9265ZM70.8334 83.6498L70.3233 84.51L70.3303 84.5141L70.8334 83.6498ZM69.2816 81.9428L68.3871 82.39L68.3904 82.3964L69.2816 81.9428ZM69.2748 76.3224L68.3733 75.8897L68.3713 75.8939L69.2748 76.3224ZM70.8267 74.5142L71.3639 75.3576L71.368 75.355L70.8267 74.5142ZM74.6186 74.2038L74.1397 75.0818L74.1475 75.0859L74.6186 74.2038ZM75.5429 74.946L74.7536 75.56L74.7597 75.5677L75.5429 74.946ZM76.0625 75.6949L75.1909 76.1852L75.4776 76.6949H76.0625V75.6949ZM76.2109 75.6949V76.6949H77.2109V75.6949H76.2109ZM76.2109 74.0149V73.0149H75.2109V74.0149H76.2109ZM78.1878 74.0149H79.1878V73.0149H78.1878V74.0149ZM77.5671 86.8008L76.7573 86.2141V86.2141L77.5671 86.8008ZM75.887 88.0692L75.5249 87.1371L75.5229 87.1379L75.887 88.0692ZM74.9627 82.1452L75.5217 82.9744L75.5237 82.973L74.9627 82.1452ZM75.8803 80.9712L74.9558 80.5901L74.9541 80.5942L75.8803 80.9712ZM75.887 77.2873L76.8188 76.9241L75.887 77.2873ZM74.9762 76.0458L74.3747 76.8447L74.3805 76.849L74.9762 76.0458ZM71.9737 76.066L72.5821 76.8597L72.5876 76.8554L71.9737 76.066ZM71.0561 77.3345L70.1233 76.9739L70.1207 76.9808L71.0561 77.3345ZM71.0628 80.9172L71.9902 80.5431V80.5431L71.0628 80.9172ZM71.9804 82.1182L71.4009 82.9332L71.4052 82.9362L71.9804 82.1182ZM73.512 87.4808C72.772 87.4808 72.1851 87.3832 71.7284 87.2172L71.045 89.0967C71.7758 89.3625 72.6058 89.4808 73.512 89.4808V87.4808ZM71.7307 87.218C71.2428 87.0392 70.8873 86.8184 70.6322 86.5757L69.2534 88.0244C69.745 88.4924 70.3521 88.8429 71.0426 89.0959L71.7307 87.218ZM70.6322 86.5757C70.3442 86.3015 70.1479 86.02 70.0228 85.733L68.1896 86.5326C68.4332 87.0912 68.7948 87.5879 69.2534 88.0244L70.6322 86.5757ZM69.4874 87.0573L71.2215 86.3421L70.4589 84.4931L68.7249 85.2083L69.4874 87.0573ZM69.9879 85.9406C70.1509 86.2063 70.3553 86.4666 70.5894 86.7215L72.0625 85.3687C71.8918 85.1828 71.7724 85.0247 71.6925 84.8946L69.9879 85.9406ZM70.59 86.7221C70.9091 87.069 71.3095 87.3319 71.7532 87.531L72.572 85.7062C72.314 85.5905 72.1566 85.471 72.0619 85.368L70.59 86.7221ZM71.7576 87.5329C72.2833 87.7658 72.8911 87.8547 73.5323 87.8547V85.8547C73.058 85.8547 72.7526 85.7862 72.5677 85.7043L71.7576 87.5329ZM73.5323 87.8547C74.4629 87.8547 75.3188 87.6252 76.0271 87.0956L74.8294 85.4939C74.5391 85.7109 74.131 85.8547 73.5323 85.8547V87.8547ZM76.0224 87.0991C76.8515 86.4866 77.1772 85.5481 77.1772 84.527H75.1772C75.1772 85.1252 75.0035 85.3652 74.8341 85.4904L76.0224 87.0991ZM77.1772 84.527V82.4893H75.1772V84.527H77.1772ZM76.1772 81.4893H76.049V83.4893H76.1772V81.4893ZM75.1731 82.0067C75.0941 82.1501 74.9628 82.3394 74.7608 82.5771L76.2846 83.8724C76.5414 83.5704 76.7609 83.2694 76.9248 82.9719L75.1731 82.0067ZM74.7545 82.5846C74.6376 82.7248 74.4478 82.8804 74.1444 83.0321L75.0388 84.8209C75.5271 84.5768 75.9579 84.2645 76.2909 83.865L74.7545 82.5846ZM74.1444 83.0321C73.9343 83.1371 73.5881 83.2234 73.0465 83.2234V85.2234C73.7733 85.2234 74.4573 85.1117 75.0388 84.8209L74.1444 83.0321ZM73.0465 83.2234C72.3905 83.2234 71.8288 83.0722 71.3366 82.7856L70.3303 84.5141C71.1515 84.9922 72.0652 85.2234 73.0465 85.2234V83.2234ZM71.3436 82.7897C70.8721 82.5101 70.4791 82.091 70.1728 81.4892L68.3904 82.3964C68.8488 83.297 69.4903 84.0159 70.3233 84.5099L71.3436 82.7897ZM70.176 81.4956C69.8854 80.9144 69.7148 80.1485 69.7148 79.1562H67.7148C67.7148 80.368 67.9221 81.4598 68.3872 82.39L70.176 81.4956ZM69.7148 79.1562C69.7148 78.1643 69.8831 77.3736 70.1784 76.751L68.3713 75.8939C67.9199 76.8456 67.7148 77.9441 67.7148 79.1562H69.7148ZM70.1764 76.7552C70.4835 76.1152 70.8831 75.6639 71.3639 75.3576L70.2894 73.6708C69.4568 74.2011 68.8218 74.9553 68.3733 75.8897L70.1764 76.7552ZM71.368 75.355C71.8526 75.043 72.4067 74.88 73.06 74.88V72.88C72.049 72.88 71.1142 73.1397 70.2853 73.6734L71.368 75.355ZM73.06 74.88C73.6029 74.88 73.9401 74.9728 74.1397 75.0817L75.0974 73.3259C74.5054 73.003 73.8035 72.88 73.06 72.88V74.88ZM74.1475 75.0859C74.4496 75.2473 74.638 75.4113 74.7536 75.56L76.3323 74.3321C76.0071 73.914 75.5792 73.5832 75.0897 73.3217L74.1475 75.0859ZM74.7597 75.5677C74.9652 75.8267 75.1042 76.0311 75.1909 76.1852L76.9341 75.2047C76.7779 74.927 76.5705 74.6321 76.3262 74.3244L74.7597 75.5677ZM76.0625 76.6949H76.2109V74.6949H76.0625V76.6949ZM77.2109 75.6949V74.0149H75.2109V75.6949H77.2109ZM76.2109 75.0149H78.1878V73.0149H76.2109V75.0149ZM77.1878 74.0149V84.6079H79.1878V74.0149H77.1878ZM77.1878 84.6079C77.1878 85.3436 77.0184 85.8537 76.7573 86.2141L78.3769 87.3874C78.9435 86.6053 79.1878 85.6535 79.1878 84.6079H77.1878ZM76.7573 86.2141C76.4647 86.6179 76.0656 86.927 75.5249 87.1371L76.2492 89.0014C77.1209 88.6627 77.8418 88.1261 78.3769 87.3874L76.7573 86.2141ZM75.5229 87.1379C74.9552 87.3599 74.2899 87.4808 73.512 87.4808V89.4808C74.4974 89.4808 75.4155 89.3273 76.2512 89.0006L75.5229 87.1379ZM73.4918 83.5501C74.2304 83.5501 74.9253 83.3765 75.5217 82.9744L74.4037 81.3161C74.1994 81.4538 73.9137 81.5501 73.4918 81.5501V83.5501ZM75.5237 82.973C76.1117 82.5745 76.5345 82.0164 76.8065 81.3483L74.9541 80.5942C74.8123 80.9426 74.6234 81.1672 74.4016 81.3174L75.5237 82.973ZM76.8048 81.3524C77.0782 80.6892 77.1974 79.939 77.1974 79.1293H75.1974C75.1974 79.7499 75.1052 80.2276 74.9558 80.5901L76.8048 81.3524ZM77.1974 79.1293C77.1974 78.3347 77.0797 77.5933 76.8188 76.9241L74.9553 77.6505C75.1083 78.0428 75.1974 78.5293 75.1974 79.1293H77.1974ZM76.8188 76.9241C76.5535 76.2436 76.1441 75.6669 75.5718 75.2426L74.3805 76.849C74.6089 77.0184 74.8068 77.2694 74.9553 77.6505L76.8188 76.9241ZM75.5776 75.2469C74.9748 74.7931 74.2585 74.5937 73.4918 74.5937V76.5937C73.9036 76.5937 74.1769 76.6958 74.3747 76.8447L75.5776 75.2469ZM73.4918 74.5937C72.7046 74.5937 71.9709 74.8013 71.3598 75.2767L72.5876 76.8554C72.7861 76.701 73.0645 76.5937 73.4918 76.5937V74.5937ZM71.3653 75.2724C70.797 75.7081 70.388 76.2892 70.1233 76.974L71.9888 77.6951C72.138 77.3092 72.3408 77.0447 72.5821 76.8596L71.3653 75.2724ZM70.1207 76.9808C69.8695 77.6452 69.7525 78.3657 69.7525 79.1293H71.7525C71.7525 78.5704 71.8379 78.0944 71.9914 77.6882L70.1207 76.9808ZM69.7525 79.1293C69.7525 79.9083 69.871 80.636 70.1355 81.2914L71.9902 80.5431C71.8408 80.173 71.7525 79.7086 71.7525 79.1293H69.7525ZM70.1355 81.2914C70.4055 81.9606 70.8232 82.5224 71.4009 82.9332L72.56 81.3033C72.328 81.1384 72.134 80.8994 71.9902 80.5431L70.1355 81.2914ZM71.4052 82.9362C72.0137 83.3642 72.7288 83.5501 73.4918 83.5501V81.5501C73.0583 81.5501 72.7658 81.448 72.5557 81.3003L71.4052 82.9362Z" fill="black" mask="url(#path-13-outside-1_63_109)"/>
</svg>
