<svg width="48" height="48" viewBox="0 0 48 48" fill="none" xmlns="http://www.w3.org/2000/svg">
<rect y="48" width="48" height="48" transform="rotate(-90 0 48)" stroke="black"/>
<path fill-rule="evenodd" clip-rule="evenodd" d="M4.29289 27.7071C4.68342 28.0976 5.31658 28.0976 5.70711 27.7071L24 9.41421L42.2929 27.7071C42.6834 28.0976 43.3166 28.0976 43.7071 27.7071C44.0976 27.3166 44.0976 26.6834 43.7071 26.2929L24.7071 7.29289C24.3166 6.90237 23.6834 6.90237 23.2929 7.29289L4.29289 26.2929C3.90237 26.6834 3.90237 27.3166 4.29289 27.7071Z" fill="#FCE1B9" stroke="#FCE1B9" stroke-width="4" stroke-linecap="round" stroke-linejoin="round"/>
<path fill-rule="evenodd" clip-rule="evenodd" d="M4.29289 40.7071C4.68342 41.0976 5.31658 41.0976 5.70711 40.7071L24 22.4142L42.2929 40.7071C42.6834 41.0976 43.3166 41.0976 43.7071 40.7071C44.0976 40.3166 44.0976 39.6834 43.7071 39.2929L24.7071 20.2929C24.3166 19.9024 23.6834 19.9024 23.2929 20.2929L4.29289 39.2929C3.90237 39.6834 3.90237 40.3166 4.29289 40.7071Z" fill="#FCE1B9" stroke="#FCE1B9" stroke-width="3" stroke-linecap="round" stroke-linejoin="round"/>
</svg>
